<?xml version="1.0" standalone="no"?>
<!DOCTYPE svg PUBLIC "-//W3C//DTD SVG 20010904//EN"
 "http://www.w3.org/TR/2001/REC-SVG-20010904/DTD/svg10.dtd">
<svg version="1.0" xmlns="http://www.w3.org/2000/svg"
 width="500.000000pt" height="500.000000pt" viewBox="0 0 500.000000 500.000000"
 preserveAspectRatio="xMidYMid meet">

<g transform="translate(0.000000,500.000000) scale(0.100000,-0.100000)"
fill="#000000" stroke="none">
<path d="M0 2500 l0 -2500 2500 0 2500 0 0 2500 0 2500 -2500 0 -2500 0 0
-2500z m1228 688 c-38 -123 -89 -287 -114 -365 l-45 -143 -49 0 c-32 0 -50 4
-50 12 0 9 188 624 215 706 3 7 24 12 58 12 l54 0 -69 -222z m1422 139 l0 -53
-150 -194 c-82 -107 -150 -197 -150 -202 0 -4 68 -8 150 -8 l150 0 0 -50 0
-50 -225 0 -225 0 0 51 c0 50 2 52 155 249 85 109 155 201 155 204 0 3 -65 6
-145 6 l-145 0 0 50 0 50 215 0 215 0 0 -53z m508 -244 c56 -164 102 -302 102
-306 0 -4 -28 -7 -62 -5 l-61 3 -22 65 -22 65 -119 0 -119 0 -20 -67 -20 -68
-62 0 c-35 0 -63 1 -63 3 0 2 181 526 205 595 3 8 29 12 82 12 l78 0 103 -297z
m312 -8 l0 -305 -60 0 -60 0 0 305 0 305 60 0 60 0 0 -305z m424 106 l121
-194 5 194 5 194 58 3 57 3 0 -306 0 -305 -62 0 -63 1 -130 212 -130 212 -3
-212 -2 -213 -60 0 -60 0 0 305 0 306 72 -3 71 -3 121 -194z m-2986 27 l-3
-52 -110 -42 c-60 -22 -109 -45 -108 -49 1 -5 50 -27 110 -49 l108 -41 3 -53
c2 -28 -1 -52 -5 -52 -4 0 -88 32 -185 71 l-178 72 0 52 0 53 173 70 c94 39
178 71 185 71 10 1 12 -13 10 -51z m652 -20 l180 -72 0 -51 0 -51 -180 -72
c-99 -40 -185 -72 -190 -72 -6 0 -10 23 -10 50 0 46 3 51 28 61 137 51 212 82
207 88 -4 3 -57 24 -118 47 l-112 42 -3 51 c-2 30 1 51 7 51 6 0 92 -32 191
-72z m-76 -992 c77 -23 122 -61 157 -131 39 -80 49 -182 25 -273 -36 -140
-123 -207 -271 -207 -145 0 -235 67 -270 201 -37 143 1 296 90 366 67 52 179
71 269 44z m1740 -16 c69 -33 73 -43 36 -90 l-32 -40 -43 26 c-36 21 -54 25
-106 22 -54 -3 -65 -7 -82 -29 -17 -24 -18 -30 -6 -55 13 -26 25 -32 114 -54
119 -31 156 -51 184 -100 25 -44 28 -124 7 -174 -53 -126 -310 -142 -421 -26
-30 32 -30 31 20 95 17 21 15 22 80 -30 31 -24 49 -30 102 -33 56 -4 67 -2 89
19 24 22 30 52 18 84 -9 22 -48 41 -119 55 -88 18 -143 47 -172 91 -22 34 -25
47 -21 104 3 58 8 69 38 100 19 20 55 42 80 50 62 20 177 13 234 -15z m-2524
-105 c0 -69 3 -125 8 -125 4 1 52 57 107 125 l100 125 63 0 c34 0 62 -3 62 -6
0 -3 -46 -63 -103 -133 -57 -69 -106 -132 -111 -139 -4 -8 37 -69 113 -165 67
-83 121 -155 121 -159 0 -5 -30 -8 -67 -8 l-68 0 -104 130 c-58 72 -109 130
-113 130 -4 0 -8 -58 -8 -130 l0 -130 -60 0 -60 0 0 305 0 305 60 0 60 0 0
-125z m1471 97 c45 -28 69 -75 69 -137 0 -60 -24 -101 -74 -127 l-39 -20 26
-21 c14 -12 31 -33 37 -46 11 -21 80 -219 80 -228 0 -2 -28 -3 -61 -1 l-62 3
-37 109 c-21 60 -46 116 -56 123 -10 7 -42 13 -71 13 l-53 0 0 -125 0 -125
-60 0 -60 0 0 306 0 306 163 -4 c148 -3 165 -5 198 -26z m609 -22 l0 -50 -140
0 -140 0 0 -70 0 -69 123 -3 122 -3 3 -47 3 -48 -125 0 -126 0 0 -85 0 -85
145 0 145 0 0 -50 0 -50 -205 0 -205 0 0 305 0 305 200 0 200 0 0 -50z m770
-65 l0 -115 135 0 135 0 0 115 0 115 60 0 60 0 0 -305 0 -305 -60 0 -60 0 0
140 0 140 -135 0 -135 0 0 -140 0 -140 -65 0 -65 0 0 305 0 305 65 0 65 0 0
-115z m670 -190 l0 -305 -60 0 -60 0 0 305 0 305 60 0 60 0 0 -305z"/>
<path d="M2966 3239 c-3 -8 -21 -62 -40 -121 l-34 -108 83 0 83 0 -36 113
c-36 116 -48 141 -56 116z"/>
<path d="M1325 2091 c-28 -12 -62 -51 -74 -84 -16 -41 -14 -191 3 -230 7 -18
26 -43 41 -57 23 -22 36 -25 100 -25 67 0 76 3 103 28 37 35 52 86 52 172 0
86 -15 137 -52 172 -24 23 -38 28 -91 30 -34 2 -71 -1 -82 -6z"/>
<path d="M1930 2019 l0 -81 81 4 c93 4 109 16 109 80 0 61 -25 78 -115 78
l-75 0 0 -81z"/>
</g>
</svg>
